<svg width="72" height="19" viewBox="0 0 72 19" fill="none" xmlns="http://www.w3.org/2000/svg">
<path d="M10.104 18.288C8.36 18.288 6.784 17.912 5.376 17.16C3.984 16.408 2.888 15.376 2.088 14.064C1.304 12.736 0.912 11.248 0.912 9.6C0.912 7.952 1.304 6.472 2.088 5.16C2.888 3.832 3.984 2.792 5.376 2.04C6.784 1.288 8.36 0.912 10.104 0.912C11.848 0.912 13.416 1.288 14.808 2.04C16.2 2.792 17.296 3.832 18.096 5.16C18.896 6.472 19.296 7.952 19.296 9.6C19.296 11.248 18.896 12.736 18.096 14.064C17.296 15.376 16.2 16.408 14.808 17.16C13.416 17.912 11.848 18.288 10.104 18.288ZM10.104 14.976C11.096 14.976 11.992 14.752 12.792 14.304C13.592 13.84 14.216 13.2 14.664 12.384C15.128 11.568 15.36 10.64 15.36 9.6C15.36 8.56 15.128 7.632 14.664 6.816C14.216 6 13.592 5.368 12.792 4.92C11.992 4.456 11.096 4.224 10.104 4.224C9.112 4.224 8.216 4.456 7.416 4.92C6.616 5.368 5.984 6 5.52 6.816C5.072 7.632 4.848 8.56 4.848 9.6C4.848 10.64 5.072 11.568 5.52 12.384C5.984 13.2 6.616 13.84 7.416 14.304C8.216 14.752 9.112 14.976 10.104 14.976ZM28.8 5.088H32.52V10.128H38.136V5.088H41.88V18H38.136V13.176H32.52V18H28.8V5.088ZM50.4801 4.896C52.4801 4.896 54.0161 5.376 55.0881 6.336C56.1601 7.28 56.6961 8.712 56.6961 10.632V18H53.1921V16.392C52.4881 17.592 51.1761 18.192 49.2561 18.192C48.2641 18.192 47.4001 18.024 46.6641 17.688C45.9441 17.352 45.3921 16.888 45.0081 16.296C44.6241 15.704 44.4321 15.032 44.4321 14.28C44.4321 13.08 44.8801 12.136 45.7761 11.448C46.6881 10.76 48.0881 10.416 49.9761 10.416H52.9521C52.9521 9.6 52.7041 8.976 52.2081 8.544C51.7121 8.096 50.9681 7.872 49.9761 7.872C49.2881 7.872 48.6081 7.984 47.9361 8.208C47.2801 8.416 46.7201 8.704 46.2561 9.072L44.9121 6.456C45.6161 5.96 46.4561 5.576 47.4321 5.304C48.4241 5.032 49.4401 4.896 50.4801 4.896ZM50.1921 15.672C50.8321 15.672 51.4001 15.528 51.8961 15.24C52.3921 14.936 52.7441 14.496 52.9521 13.92V12.6H50.3841C48.8481 12.6 48.0801 13.104 48.0801 14.112C48.0801 14.592 48.2641 14.976 48.6321 15.264C49.0161 15.536 49.5361 15.672 50.1921 15.672ZM66.0924 18.192C64.7164 18.192 63.4764 17.912 62.3724 17.352C61.2844 16.776 60.4284 15.984 59.8044 14.976C59.1964 13.968 58.8924 12.824 58.8924 11.544C58.8924 10.264 59.1964 9.12 59.8044 8.112C60.4284 7.104 61.2844 6.32 62.3724 5.76C63.4764 5.184 64.7164 4.896 66.0924 4.896C67.4524 4.896 68.6364 5.184 69.6444 5.76C70.6684 6.32 71.4124 7.128 71.8764 8.184L68.9724 9.744C68.3004 8.56 67.3324 7.968 66.0684 7.968C65.0924 7.968 64.2844 8.288 63.6444 8.928C63.0044 9.568 62.6844 10.44 62.6844 11.544C62.6844 12.648 63.0044 13.52 63.6444 14.16C64.2844 14.8 65.0924 15.12 66.0684 15.12C67.3484 15.12 68.3164 14.528 68.9724 13.344L71.8764 14.928C71.4124 15.952 70.6684 16.752 69.6444 17.328C68.6364 17.904 67.4524 18.192 66.0924 18.192Z" fill="#0499DD"/>
</svg>
